<svg width="58" height="18" viewBox="0 0 58 18" fill="none" xmlns="http://www.w3.org/2000/svg">
<rect x="0.25" y="0.25" width="57.5" height="17.5" stroke="white" stroke-width="0.5"/>
<path d="M6.864 4.48H7.224L10.884 13H10.44L9.18 10.06H4.908L3.648 13H3.192L6.864 4.48ZM9.048 9.7L7.044 5.008L5.028 9.7H9.048ZM12.2497 13V4.48H15.7537C16.1137 4.48 16.4417 4.556 16.7377 4.708C17.0337 4.852 17.2897 5.052 17.5057 5.308C17.7217 5.556 17.8897 5.836 18.0097 6.148C18.1297 6.452 18.1897 6.764 18.1897 7.084C18.1897 7.516 18.1017 7.92 17.9257 8.296C17.7497 8.672 17.5057 8.984 17.1937 9.232C16.8817 9.48 16.5177 9.624 16.1017 9.664L18.2377 13H17.7577L15.6457 9.712H12.6697V13H12.2497ZM12.6697 9.328H15.8257C16.2257 9.328 16.5697 9.22 16.8577 9.004C17.1537 8.788 17.3817 8.508 17.5417 8.164C17.7017 7.82 17.7817 7.46 17.7817 7.084C17.7817 6.7 17.6897 6.34 17.5057 6.004C17.3217 5.66 17.0737 5.384 16.7617 5.176C16.4577 4.968 16.1177 4.864 15.7417 4.864H12.6697V9.328ZM25.7348 4.864H22.5428V13H22.1228V4.864H18.9308V4.48H25.7348V4.864ZM27.0973 13V4.48H27.5173V9.844L32.7253 4.48H33.2413L29.6533 8.212L33.4093 13H32.9173L29.3653 8.476L27.5173 10.36V13H27.0973ZM34.6208 13V4.48H35.0408V13H34.6208ZM37.7595 5.26V13H37.3395V4.48H37.6755L43.9155 12.34V4.48H44.3355V13H43.9035L37.7595 5.26ZM50.0282 13.06C49.4362 13.06 48.8962 12.94 48.4082 12.7C47.9202 12.452 47.5002 12.124 47.1482 11.716C46.7962 11.308 46.5242 10.848 46.3322 10.336C46.1402 9.816 46.0442 9.284 46.0442 8.74C46.0442 8.172 46.1442 7.632 46.3442 7.12C46.5442 6.6 46.8242 6.14 47.1842 5.74C47.5522 5.332 47.9762 5.012 48.4562 4.78C48.9442 4.54 49.4682 4.42 50.0282 4.42C50.6202 4.42 51.1602 4.544 51.6482 4.792C52.1362 5.04 52.5522 5.372 52.8962 5.788C53.2482 6.204 53.5202 6.668 53.7122 7.18C53.9042 7.692 54.0002 8.212 54.0002 8.74C54.0002 9.316 53.9002 9.864 53.7002 10.384C53.5002 10.896 53.2202 11.356 52.8602 11.764C52.5002 12.164 52.0762 12.48 51.5882 12.712C51.1082 12.944 50.5882 13.06 50.0282 13.06ZM46.4642 8.74C46.4642 9.252 46.5522 9.744 46.7282 10.216C46.9042 10.68 47.1482 11.096 47.4602 11.464C47.7802 11.832 48.1562 12.124 48.5882 12.34C49.0282 12.556 49.5082 12.664 50.0282 12.664C50.5562 12.664 51.0402 12.552 51.4802 12.328C51.9202 12.104 52.2962 11.804 52.6082 11.428C52.9202 11.052 53.1602 10.632 53.3282 10.168C53.4962 9.704 53.5802 9.228 53.5802 8.74C53.5802 8.228 53.4922 7.74 53.3162 7.276C53.1402 6.804 52.8922 6.384 52.5722 6.016C52.2522 5.648 51.8722 5.356 51.4322 5.14C51.0002 4.924 50.5322 4.816 50.0282 4.816C49.4922 4.816 49.0042 4.928 48.5642 5.152C48.1322 5.376 47.7602 5.676 47.4482 6.052C47.1362 6.428 46.8922 6.848 46.7162 7.312C46.5482 7.776 46.4642 8.252 46.4642 8.74Z" fill="white"/>
</svg>
